HIERARCHY
ROOT Hips
{
	OFFSET 0.000000 0.000000 0.000000
	CHANNELS 6 Xposition Yposition Zposition Zrotation Yrotation Xrotation 
	JOINT LHipJoint
	{
		OFFSET 0.000000 0.000000 0.000000
		CHANNELS 3 Zrotation Yrotation Xrotation
		JOINT LeftUpLeg
		{
			OFFSET 1.363060 -1.794630 0.839290
			CHANNELS 3 Zrotation Yrotation Xrotation
			JOINT LeftLeg
			{
				OFFSET 2.448110 -6.726130 0.000000
				CHANNELS 3 Zrotation Yrotation Xrotation
				JOINT LeftFoot
				{
					OFFSET 2.562200 -7.039590 0.000000
					CHANNELS 3 Zrotation Yrotation Xrotation
					JOINT LeftToeBase
					{
						OFFSET 0.157640 -0.433110 2.322550
						CHANNELS 3 Zrotation Yrotation Xrotation
						End Site
						{
							OFFSET 0.000000 0.000000 0.000000
						}
					}
				}
			}
		}
	}
	JOINT RHipJoint
	{
		OFFSET 0.000000 0.000000 0.000000
		CHANNELS 3 Zrotation Yrotation Xrotation
		JOINT RightUpLeg
		{
			OFFSET -1.305520 -1.794630 0.839290
			CHANNELS 3 Zrotation Yrotation Xrotation
			JOINT RightLeg
			{
				OFFSET -2.542530 -6.985550 0.000000
				CHANNELS 3 Zrotation Yrotation Xrotation
				JOINT RightFoot
				{
					OFFSET -2.568260 -7.056230 0.000000
					CHANNELS 3 Zrotation Yrotation Xrotation
					JOINT RightToeBase
					{
						OFFSET -0.164730 -0.452590 2.363150
						CHANNELS 3 Zrotation Yrotation Xrotation
						End Site
						{
							OFFSET 0.000000 0.000000 0.000000
						}
					}
				}
			}
		}
	}
	JOINT LowerBack
	{
		OFFSET 0.000000 0.000000 0.000000
		CHANNELS 3 Zrotation Yrotation Xrotation
		JOINT Spine
		{
			OFFSET 0.028270 2.035590 -0.193380
			CHANNELS 3 Zrotation Yrotation Xrotation
			JOINT Spine1
			{
				OFFSET 0.056720 2.048850 -0.042750
				CHANNELS 3 Zrotation Yrotation Xrotation
				JOINT Neck
				{
					OFFSET 0.000000 0.000000 0.000000
					CHANNELS 3 Zrotation Yrotation Xrotation
					JOINT Neck1
					{
						OFFSET -0.054170 1.746240 0.172020
						CHANNELS 3 Zrotation Yrotation Xrotation
						JOINT Head
						{
							OFFSET 0.104070 1.761360 -0.123970
							CHANNELS 3 Zrotation Yrotation Xrotation
							End Site
							{
								OFFSET 0.000000 0.000000 0.000000
							}
						}
					}
				}
				JOINT LeftShoulder
				{
					OFFSET 0.000000 0.000000 0.000000
					CHANNELS 3 Zrotation Yrotation Xrotation
					JOINT LeftArm
					{
						OFFSET 3.362410 1.200890 -0.311210
						CHANNELS 3 Zrotation Yrotation Xrotation
						JOINT LeftForeArm
						{
							OFFSET 4.983000 -0.000000 -0.000000
							CHANNELS 3 Zrotation Yrotation Xrotation
							JOINT LeftHand
							{
								OFFSET 3.483560 -0.000000 -0.000000
								CHANNELS 3 Zrotation Yrotation Xrotation
								JOINT LeftFingerBase
								{
									OFFSET 0.000000 0.000000 0.000000
									CHANNELS 3 Zrotation Yrotation Xrotation
									JOINT LeftHandIndex1
									{
										OFFSET 0.715260 -0.000000 -0.000000
										CHANNELS 3 Zrotation Yrotation Xrotation
										End Site
										{
											OFFSET 0.000000 0.000000 0.000000
										}
									}
								}
								JOINT LThumb
								{
									OFFSET 0.000000 0.000000 0.000000
									CHANNELS 3 Zrotation Yrotation Xrotation
									End Site
									{
										OFFSET 0.000000 0.000000 0.000000
									}
								}
							}
						}
					}
				}
				JOINT RightShoulder
				{
					OFFSET 0.000000 0.000000 0.000000
					CHANNELS 3 Zrotation Yrotation Xrotation
					JOINT RightArm
					{
						OFFSET -3.136600 1.374050 -0.404650
						CHANNELS 3 Zrotation Yrotation Xrotation
						JOINT RightForeArm
						{
							OFFSET -5.241900 -0.000000 -0.000000
							CHANNELS 3 Zrotation Yrotation Xrotation
							JOINT RightHand
							{
								OFFSET -3.444170 -0.000000 -0.000000
								CHANNELS 3 Zrotation Yrotation Xrotation
								JOINT RightFingerBase
								{
									OFFSET 0.000000 0.000000 0.000000
									CHANNELS 3 Zrotation Yrotation Xrotation
									JOINT RightHandIndex1
									{
										OFFSET -0.622530 -0.000000 -0.000000
										CHANNELS 3 Zrotation Yrotation Xrotation
										End Site
										{
											OFFSET 0.000000 0.000000 0.000000
										}
									}
								}
								JOINT RThumb
								{
									OFFSET 0.000000 0.000000 0.000000
									CHANNELS 3 Zrotation Yrotation Xrotation
									End Site
									{
										OFFSET 0.000000 0.000000 0.000000
									}
								}
							}
						}
					}
				}
			}
		}
	}
}
MOTION
Frames: 5
Frame Time: 0.008333
10.670071 20.920756 0.931391 37.272831 -88.420479 -15.427054 -11.079188 2.649997 3.306675 -8.027644 2.540027 -29.389243 -0.396266 0.701462 20.459002 1.579429 6.717798 34.236686 3.981500 -0.000000 -59.306500 10.647605 -2.084204 1.500008 5.232551 -10.469779 -25.152577 1.993142 -0.398667 10.402987 -0.347735 -3.432504 20.691238 -2.180800 -0.000001 -81.146100 -0.480082 -1.195668 -5.873664 -0.503084 -1.246899 -4.921627 -4.336317 -1.171217 -5.363100 3.565138 -3.339871 3.878974 -2.169766 -0.323292 3.216048 0.000000 0.000000 0.000000 10.582559 -1.652737 -4.755554 -54.799342 -60.722776 -17.531224 176.373872 -63.969043 179.687169 17.934144 -6.086063 -1.140064 -0.134781 1.070729 -0.000000 0.000000 0.000000 0.000000 0.000000 0.000000 0.000000 -0.717811 -4.446019 -4.927787 44.251712 62.944496 -26.784239 -177.532656 79.743400 179.651565 -24.890854 10.152809 -2.468547 0.167137 -0.911831 -0.000000 0.000000 0.000000 0.000000 0.000000 0.000000 0.000000 
10.529159 20.995828 0.919875 37.418036 -88.457752 -15.278506 -11.033480 2.544887 3.261164 -8.314856 2.450552 -30.185437 -0.488079 0.677898 19.552688 1.537725 6.907149 33.960132 4.134500 0.000000 -59.152100 10.588036 -1.984694 1.593019 5.426539 -10.144165 -25.880954 2.176892 -0.261233 9.076185 -0.239884 -2.977040 20.203132 -1.989900 0.000000 -81.210100 -0.484765 -1.183626 -5.850030 -0.511767 -1.234747 -4.905784 -4.348932 -1.158358 -5.298926 3.612343 -3.284819 3.956016 -2.188586 -0.324968 3.232011 0.000000 0.000000 0.000000 10.639478 -1.567938 -4.764158 -54.423553 -60.653950 -18.297465 176.270983 -62.595739 179.679491 18.388122 -6.417005 -1.226606 -0.157367 1.080809 -0.000000 0.000000 0.000000 0.000000 0.000000 0.000000 0.000000 -0.671214 -4.581399 -4.951190 43.485056 62.683611 -27.660368 -177.371178 78.358027 179.648951 -25.246824 10.198002 -2.516462 0.181183 -0.912428 -0.000000 0.000000 0.000000 0.000000 0.000000 0.000000 0.000000 
10.388800 21.058978 0.908337 37.598052 -88.515850 -15.172563 -10.988007 2.440913 3.218816 -8.575090 2.353217 -30.954332 -0.587541 0.649805 18.586049 1.488588 7.036686 33.639912 4.246200 -0.000000 -59.081200 10.522964 -1.881309 1.694950 5.613299 -9.771354 -26.639040 2.353068 -0.123938 7.871457 -0.135681 -2.524884 19.630048 -1.800500 0.000000 -81.234400 -0.489956 -1.172220 -5.835382 -0.518874 -1.223291 -4.891688 -4.357742 -1.146719 -5.233749 3.665378 -3.209750 4.040752 -2.203683 -0.326520 3.250278 0.000000 0.000000 0.000000 10.695712 -1.494922 -4.768693 -54.187626 -60.561044 -18.863590 176.191161 -61.392285 179.672641 18.806384 -6.728234 -1.310144 -0.178738 1.090135 -0.000000 0.000000 0.000000 0.000000 0.000000 0.000000 0.000000 -0.629006 -4.681397 -4.966481 42.843225 62.413459 -28.346794 -177.231009 77.089734 179.646222 -25.602123 10.302280 -2.578472 0.195086 -0.914015 -0.000000 0.000000 0.000000 0.000000 0.000000 0.000000 0.000000 
10.248521 21.110168 0.896815 37.827926 -88.589783 -15.123315 -10.941832 2.339264 3.182514 -8.809882 2.240779 -31.701695 -0.695717 0.617700 17.580879 1.428756 7.077605 33.251561 4.295900 -0.000000 -58.972900 10.454209 -1.774760 1.802079 5.792705 -9.375619 -27.425632 2.520959 0.011824 6.783301 -0.036575 -2.083347 18.999005 -1.617700 -0.000000 -81.138799 -0.496309 -1.163179 -5.830225 -0.524770 -1.214220 -4.878524 -4.364265 -1.137777 -5.164449 3.723241 -3.125015 4.131681 -2.215971 -0.327986 3.270456 0.000000 0.000000 0.000000 10.748326 -1.426336 -4.770347 -54.075857 -60.453272 -19.230704 176.132936 -60.353018 179.666847 19.170803 -7.008287 -1.386576 -0.198186 1.098525 -0.000000 0.000000 0.000000 0.000000 0.000000 0.000000 0.000000 -0.590761 -4.757055 -4.976115 42.335668 62.148022 -28.837936 -177.110703 75.936910 179.643594 -25.936936 10.443575 -2.648079 0.208350 -0.916323 -0.000000 0.000000 0.000000 0.000000 0.000000 0.000000 0.000000 
10.108200 21.149217 0.885271 38.155224 -88.673537 -15.178499 -10.893318 2.240106 3.156541 -9.018615 2.096665 -32.430233 -0.811249 0.580959 16.546065 1.359061 7.027813 32.820335 4.284800 0.000001 -59.026400 10.385098 -1.665351 1.909222 5.965924 -8.983947 -28.240255 2.679619 0.144021 5.795739 0.056253 -1.659430 18.371733 -1.446500 -0.000000 -80.999600 -0.505171 -1.158125 -5.834401 -0.530058 -1.209067 -4.865487 -4.370343 -1.132877 -5.088610 3.784954 -3.041167 4.227413 -2.226642 -0.329423 3.292160 0.000000 0.000000 0.000000 10.794513 -1.358341 -4.770248 -54.064513 -60.338341 -19.410184 176.095088 -59.471534 179.662296 19.465432 -7.249337 -1.452701 -0.215113 1.105867 -0.000000 0.000000 0.000000 0.000000 0.000000 0.000000 0.000000 -0.554201 -4.820110 -4.982284 41.966614 61.902551 -29.133950 -177.008851 74.899080 179.641305 -26.231071 10.598266 -2.717381 0.220484 -0.919012 -0.000000 0.000000 0.000000 0.000000 0.000000 0.000000 0.000000 
